<svg version="1.2" xmlns="http://www.w3.org/2000/svg" viewBox="0 0 202 202" width="202" height="202"><style>.a{fill:none;stroke:#6faaa7;stroke-width:4}.b{fill:none;stroke:#6faaa7;stroke-linecap:round;stroke-linejoin:round;stroke-width:4}.c{fill:none;stroke:#6faaa7;stroke-linecap:round;stroke-linejoin:round;stroke-width:2}</style><path class="a" d="m199.3 199.3h-195.9v-195.9h195.9z"/><path class="b" d="m32.5 51.8c-4.6-3.7-3.7-11.8 1-15.4 4.8-3.5 11.8-2.8 16.6 0.7 7.4 5.6 8.9 17.6 2.9 24.8-5.7 6.8-16.3 8.2-24.4 4.6-8.2-3.6-14-11.2-17.3-19.5-3.3-8.2-7.9-23.4-7.6-43.2"/><path class="b" d="m21.9 62.3c3.5 3.1 7.7 8.1 7.4 12.9-0.1 4-2.8 7.9-7.2 6.2-2.4-0.9-4.2-3.8-1.3-6.4"/><path class="c" d="m36.9 46.9c0.5-2.7 3.7-3.4 5.9-2.5 3.7 1.5 4.8 5.9 4.1 9.5-1.3 6.6-7.5 8-13.2 6.4-8-2.1-12.2-9-15.1-16.2-3.6-9.1-6-18.6-7-28.3"/><path class="c" d="m34.9 73.7c3.1 4.5 5.7 10.1 4.9 15.6-0.3 2.1-1.4 2.9-2.9 3.2-1.4 0.3-3.1-0.5-3.5-1.9-0.3-1-0.1-2.1 0.3-3.1 0.6-2.3 1.5-4.5 1.9-6.8 0.5-2.3 0.1-4.8-0.7-7z"/><path class="c" d="m41.5 33.2c-5.7 2.1-14.6-2.9-12.7-9.6 0.9-3.1 3.8-5 6.9-5.4 2.4-0.3 5.8 0.2 5.8 3.3 0 1.2-1.3 2.5-2.4 2.8-1.1 0.3-2.3-0.3-2.4-1.5"/><path class="c" d="m20.5 89.5c-1.1 1-2.9 1.1-4.4 0.6-3.3-1.2-4.9-3.6-5.5-6.9-1-5.9 1.2-12.3 5.7-16.3"/><path class="c" d="m11.6 86.3c1.5 3.3 2.1 6.5 0.5 9.1"/><path class="b" d="m199.4 3.8c0.4 19.8-4.2 35-7.6 43.2-3.3 8.3-9.1 15.9-17.2 19.5-8.2 3.6-18.8 2.2-24.5-4.6-5.9-7.2-4.5-19.2 3-24.8 4.7-3.5 11.8-4.2 16.5-0.7 4.8 3.6 5.6 11.7 1.1 15.4"/><path class="b" d="m182.4 75c2.9 2.6 1.1 5.5-1.4 6.4-4.4 1.7-7-2.2-7.2-6.2-0.2-4.8 3.9-9.8 7.4-12.9"/><path class="c" d="m191.6 15.8c-1.1 9.7-3.4 19.2-7.1 28.3-2.8 7.2-7.1 14.1-15 16.2-5.8 1.6-12 0.2-13.2-6.4-0.8-3.6 0.4-8 4.1-9.5 2.2-0.9 5.4-0.2 5.8 2.5"/><path class="c" d="m167.6 80.7c0.4 2.3 1.2 4.5 1.9 6.8 0.3 1 0.6 2.1 0.3 3.1-0.5 1.4-2.1 2.2-3.6 1.9-1.4-0.3-2.5-1.1-2.8-3.2-0.8-5.5 1.7-11.1 4.9-15.6-0.9 2.2-1.2 4.7-0.7 7z"/><path class="c" d="m166.5 22.8c-0.2 1.2-1.3 1.8-2.4 1.5-1.2-0.3-2.4-1.6-2.4-2.8 0-3.1 3.3-3.6 5.8-3.3 3 0.4 6 2.3 6.9 5.4 1.9 6.7-7 11.7-12.7 9.6"/><path class="c" d="m186.9 66.9c4.4 4 6.7 10.4 5.7 16.3-0.6 3.3-2.2 5.7-5.5 6.9-1.5 0.5-3.3 0.4-4.5-0.6"/><path class="c" d="m191.6 86.3c-1.6 3.3-2.1 6.5-0.5 9.1"/><path class="b" d="m92.2 17.2c-8-3-17.3-2.6-25 1.2-4.3 2.1-8.6 6-8.3 10.9 0.1 2.1 1.6 4.4 3.8 4.3 1.6 0 2.8-1.5 3.1-3.1 0.3-1.6-0.1-3.3-0.7-4.8-4.8-12.8-18.6-22.3-33-22.3"/><path class="b" d="m170.6 3.4c-14.4 0-28.2 9.5-33 22.3-0.5 1.5-1 3.2-0.7 4.8 0.3 1.6 1.5 3.1 3.1 3.1 2.2 0.1 3.7-2.2 3.8-4.3 0.3-4.9-4-8.8-8.3-10.9-7.7-3.8-17-4.2-25-1.2"/><path class="b" d="m170.7 150.8c4.5 3.8 3.7 11.9-1.1 15.4-4.7 3.6-11.8 2.9-16.5-0.6-7.5-5.6-8.9-17.6-3-24.8 5.7-6.9 16.3-8.2 24.5-4.7 8.1 3.6 13.9 11.3 17.2 19.5 3.4 8.3 8 23.5 7.6 43.3"/><path class="b" d="m181.2 140.3c-3.5-3.1-7.6-8-7.4-12.8 0.2-4 2.8-7.9 7.2-6.2 2.5 0.9 4.3 3.8 1.4 6.3"/><path class="c" d="m166.2 155.8c-0.4 2.7-3.6 3.4-5.8 2.5-3.7-1.6-4.9-5.9-4.1-9.6 1.2-6.5 7.4-7.9 13.2-6.4 7.9 2.2 12.2 9.1 15 16.3 3.7 9 6 18.6 7.1 28.3"/><path class="c" d="m168.3 129c-3.2-4.6-5.7-10.1-4.9-15.6 0.3-2.1 1.4-3 2.8-3.3 1.5-0.3 3.1 0.6 3.6 2 0.3 1 0 2.1-0.3 3.1-0.7 2.2-1.5 4.5-1.9 6.8-0.5 2.3-0.2 4.8 0.7 7z"/><path class="c" d="m161.7 169.4c5.7-2.1 14.6 2.9 12.7 9.7-0.9 3.1-3.9 5-6.9 5.4-2.5 0.3-5.8-0.2-5.8-3.3 0-1.3 1.2-2.5 2.4-2.8 1.1-0.3 2.2 0.3 2.4 1.4"/><path class="c" d="m182.6 113.2c1.2-1.1 3-1.2 4.5-0.6 3.3 1.2 4.9 3.5 5.5 6.9 1 5.9-1.3 12.3-5.7 16.3"/><path class="c" d="m191.6 116.4c-1.6-3.3-2.1-6.6-0.5-9.2"/><path class="b" d="m3.7 198.9c-0.3-19.8 4.3-35 7.6-43.3 3.3-8.2 9.1-15.9 17.3-19.5 8.1-3.5 18.7-2.2 24.4 4.7 6 7.2 4.5 19.2-2.9 24.8-4.8 3.5-11.8 4.2-16.6 0.6-4.7-3.5-5.6-11.6-1-15.4"/><path class="b" d="m20.8 127.6c-2.9-2.5-1.1-5.4 1.3-6.3 4.4-1.7 7.1 2.2 7.2 6.2 0.3 4.8-3.9 9.7-7.4 12.8"/><path class="c" d="m11.6 186.9c1-9.7 3.4-19.3 7-28.3 2.9-7.2 7.1-14.1 15.1-16.3 5.7-1.5 11.9-0.1 13.2 6.4 0.7 3.7-0.4 8-4.1 9.6-2.2 0.9-5.4 0.2-5.9-2.5"/><path class="c" d="m35.6 122c-0.4-2.3-1.3-4.6-1.9-6.8-0.4-1-0.6-2.1-0.3-3.1 0.4-1.4 2.1-2.3 3.5-2 1.5 0.3 2.6 1.2 2.9 3.3 0.8 5.5-1.8 11-4.9 15.6 0.8-2.2 1.2-4.7 0.7-7z"/><path class="c" d="m36.7 179.8c0.1-1.1 1.3-1.7 2.4-1.4 1.1 0.3 2.4 1.5 2.4 2.8 0 3.1-3.4 3.6-5.8 3.3-3.1-0.4-6-2.3-6.9-5.4-1.9-6.8 7-11.8 12.7-9.7"/><path class="c" d="m16.3 135.8c-4.5-4-6.7-10.4-5.7-16.3 0.6-3.4 2.2-5.7 5.5-6.9 1.5-0.6 3.3-0.5 4.4 0.6"/><path class="c" d="m11.6 116.4c1.5-3.3 2.1-6.6 0.5-9.2"/><path class="b" d="m111 185.4c8 3.1 17.3 2.7 24.9-1.1 4.4-2.1 8.6-6.1 8.3-10.9-0.1-2.1-1.6-4.5-3.7-4.4-1.6 0.1-2.9 1.6-3.2 3.2-0.3 1.6 0.2 3.2 0.8 4.8 4.8 12.8 18.6 22.3 33 22.3"/><path class="b" d="m32.5 199.3c14.5 0 28.2-9.5 33-22.3 0.6-1.6 1.1-3.2 0.8-4.8-0.3-1.6-1.6-3.1-3.2-3.2-2.1-0.1-3.6 2.3-3.7 4.4-0.3 4.8 3.9 8.8 8.3 10.9 7.7 3.8 16.9 4.2 25 1.1"/></svg>