<svg version="1.2" xmlns="http://www.w3.org/2000/svg" viewBox="0 0 349 51" width="349" height="51">
	<title>新建项目</title>
	<style>
		.s0 { fill: #000000 } 
	</style>
	<g id="&lt;Group&gt;">
		<g id="&lt;Group&gt;">
			<path id="&lt;Path&gt;" class="s0" d="m142.1 30.2c0.7-4.8 1.9-9.1 3.1-12.8q2.5 0 5.1 0.4-3.4 8.6-4.3 19.8c-4-1.4-7.6-3.7-10.9-6.4-1.8-1.5-3.6-3.2-5.1-4.9q-8.3-8.9-13.1-19.1c6.1 8.4 11.3 13.8 15.3 17.2 2.3 1.9 4.2 3.2 5.7 4.1q2.8 1.6 4.2 1.7z"/>
			<path id="&lt;Path&gt;" class="s0" d="m133.9 31.2c-3.3 2.4-7.3 3.8-11.7 3.8-10.9 0-19.7-8.7-20-19.5-43.3 1.9-62.5 26.1-102.6-2.5 44.7 22.5 56.8 0.8 102.9-1.4q2.8-0.1 5.7-0.1-0.4 1.7-0.4 3.5 0 0.2 0 0.4c0.2 7.8 6.6 14.1 14.4 14.1 2.8 0 5.4-0.8 7.6-2.2q2 2 4.1 3.9z"/>
			<g id="&lt;Group&gt;">
				<path id="&lt;Path&gt;" class="s0" d="m99.7 17.8q0.3 1.9 0.8 3.6c-37.7 0.2-45.2 16.5-77.6 6.5 35 6 37.6-8.1 76.8-10.1z"/>
				<path id="&lt;Path&gt;" class="s0" d="m101.4 23.5q0.8 1.8 1.9 3.4c-29.7 0.1-36.8 9.7-58.4 6.1 24.2-1 27.6-9.4 56.5-9.5z"/>
			</g>
			<g id="&lt;Group&gt;">
				<path id="&lt;Path&gt;" class="s0" d="m112.8 33.7q2.2 1.1 4.6 1.6c-2.8 2.2-24 17.4-55.6 12.2q26.6 1 38.7-15.5-15.5-1.2-38.2 7.4 16.9-11.8 44-10.2-0.6 5.9-9.2 10.7 8.5-1.3 15.7-6.2z"/>
				<path id="&lt;Path&gt;" class="s0" d="m168.5 35.5q-19.5 10.9-31.3 2.4c-2.3-1.6-4.5-2.8-6.4-3.8-2.4 1-5 1.7-7.8 1.8 16.9 3.6 20.4 15.7 45.5-0.4z"/>
			</g>
		</g>
		<g id="&lt;Group&gt;">
			<path id="&lt;Path&gt;" class="s0" d="m210.3 28.5c1.6-0.9 3.5-2.2 5.8-4.1 4-3.4 9.1-8.8 15.3-17.2q-4.8 10.2-13.1 19.1c-1.6 1.7-3.3 3.4-5.1 4.9-3.3 2.7-6.9 5-10.9 6.4q-0.9-11.2-4.3-19.8 2.6-0.4 5.1-0.4c1.2 3.7 2.3 8 3.1 12.8q1.4-0.1 4.1-1.7z"/>
			<path id="&lt;Path&gt;" class="s0" d="m218.4 27.3c2.3 1.4 4.9 2.2 7.7 2.2 7.8 0 14.2-6.3 14.4-14.1q0-0.2 0-0.4 0-1.8-0.4-3.5 2.9 0 5.7 0.1c46.1 2.2 58.2 23.9 102.9 1.4-40.1 28.6-59.3 4.4-102.7 2.5-0.2 10.8-9.1 19.5-19.9 19.5-4.4 0-8.5-1.4-11.8-3.8q2.2-1.9 4.1-3.9z"/>
			<g id="&lt;Group&gt;">
				<path id="&lt;Path&gt;" class="s0" d="m325.4 27.9c-32.5 10-39.9-6.3-77.7-6.5q0.6-1.7 0.8-3.6c39.3 2 41.8 16.1 76.9 10.1z"/>
				<path id="&lt;Path&gt;" class="s0" d="m303.4 33c-21.6 3.6-28.8-6-58.4-6.1q1.1-1.6 1.9-3.4c28.8 0.1 32.3 8.5 56.5 9.5z"/>
			</g>
			<g id="&lt;Group&gt;">
				<path id="&lt;Path&gt;" class="s0" d="m251.2 39.9q-8.6-4.8-9.2-10.7 27.1-1.6 44 10.2-22.7-8.6-38.3-7.4 12.2 16.5 38.8 15.5c-31.6 5.2-52.8-10-55.6-12.2q2.4-0.5 4.6-1.6 7.1 4.9 15.7 6.2z"/>
				<path id="&lt;Path&gt;" class="s0" d="m225.3 35.9c-2.8-0.1-5.4-0.8-7.8-1.8-2 1-4.1 2.2-6.4 3.8q-11.9 8.5-31.3-2.4c25.1 16.1 28.6 4 45.5 0.4z"/>
			</g>
		</g>
		<g id="&lt;Group&gt;">
			<path id="&lt;Path&gt;" class="s0" d="m179.2 16.3q-2.1-1.5-4.4-2.9c6.4-3.9 13.9-7.6 22.2-10.2q1.8 3 4 8.2-2.8 0.4-5.8 1.1-0.7-1-1.6-1.8-4.9 1-14.4 5.6z"/>
			<path id="&lt;Path&gt;" class="s0" d="m169.1 17.1q2 1 4.3 2.2c-6.5 3.4-14.4 8.3-23.8 15q7.1-8.5 19.5-17.2z"/>
			<g id="&lt;Group&gt;">
				<path id="&lt;Path&gt;" class="s0" d="m168.6 22.8q2-1.2 3.9-2.2c7.4 4 14.8 9.8 20.9 18q-10.7-9.3-24.8-15.8z"/>
				<g id="&lt;Group&gt;">
					<path id="&lt;Path&gt;" class="s0" d="m169.9 24.2q1.8 0.9 3.5 1.8-10.9 5.9-18.5 12.6c4.4-6 9.6-10.7 15-14.4z"/>
					<path id="&lt;Path&gt;" class="s0" d="m215 24.3c-1.7 1.5-3.2 2.5-4.5 3.3-2.4-3.1-4-6.8-4.3-10.9q-1.3-0.1-2.5-0.1h-0.6q0 0 0 0-2.7 0.1-5.4 0.5l-0.8 0.1c-6.4 1.1-12.7 3.4-18.4 6.1q-1.8-1.2-3.6-2.2c11.8-6.7 23.9-8.9 31.5-9.7 2.3-0.2 4.2-0.3 5.5-0.3h0.3q-0.4 1.4-0.5 3-0.1 0.5-0.1 0.9c0 3.6 1.3 6.8 3.4 9.3z"/>
					<g id="&lt;Group&gt;">
						<path id="&lt;Path&gt;" class="s0" d="m179.9 17.7q-2 0.9-4.1 2-13.8-7.5-21.2-9-0.8 0.8-1.5 1.8-3-0.7-5.8-1.1 2.2-5.2 4-8.2c11.3 3.6 21 9.1 28.6 14.5z"/>
						<path id="&lt;Path&gt;" class="s0" d="m181.3 22.9q1.8-0.8 3.6-1.5 8.8 7 13.8 12.9c-6.5-4.7-12.3-8.4-17.4-11.4z"/>
					</g>
				</g>
				<path id="&lt;Path&gt;" class="s0" d="m166.9 17.8q-1.9 1.4-3.6 2.7c-3.9-1.4-7.9-2.6-11.9-3.3l-0.8-0.1q-2.7-0.4-5.4-0.5 0 0 0 0h-0.6q-1.2 0-2.5 0.1c-0.3 4.1-1.9 7.8-4.3 10.9-1.3-0.8-2.8-1.8-4.5-3.3 2.1-2.5 3.4-5.7 3.4-9.3q0-0.4-0.1-0.9-0.1-1.6-0.5-3h0.3c1.3 0 3.2 0.1 5.5 0.3 6.2 0.6 15.4 2.2 25 6.4z"/>
			</g>
		</g>
	</g>
</svg>