<svg version="1.2" xmlns="http://www.w3.org/2000/svg" viewBox="0 0 327 60" width="327" height="60">
	<title>&lt;Group&gt;</title>
	<style>
		.s0 { fill: #1a1818 } 
	</style>
	<g id="&lt;Group&gt;">
		<g id="&lt;Group&gt;">
			<path id="&lt;Path&gt;" class="s0" d="m172.5 50.6l2.2 1q-2.4 5.1-5.9 7.2 2-3.7 3.7-8.2z"/>
			<path id="&lt;Path&gt;" class="s0" d="m153.8 50.6q1.7 4.5 3.6 8.2-3.4-2.1-5.8-7.2z"/>
			<path id="&lt;Compound Path&gt;" fill-rule="evenodd" class="s0" d="m216.4 33.4q13.6 1.1 20.7-5.5-9.6 14.3-30.6 9.7c-9.9-2.1-19.3-2.4-28.1-0.5 0.1 2.7-0.2 6.8-2.1 10.6q-1.3-0.6-2.1-1.3 1-4.9 0.5-7.4-3 0.6-6.1 3.6 9.3 10.7 27.6 10-16.7 5.3-33.1-9-16.4 14.3-33 9 18.3 0.7 27.6-10-3.1-3-6.1-3.6-0.5 2.5 0.5 7.4-0.8 0.7-2.1 1.3c-2-3.8-2.2-7.9-2.1-10.6-8.8-1.9-18.2-1.6-28.1 0.5q-21 4.6-30.7-9.7 7.2 6.6 20.8 5.5c-24.5-29-40-3.9-55.3-32.2 17.5 16.9 22.1 6.7 37 11.9q15 5.1 27.1 18.5l2.5-0.6q-9.3-17.3-28.6-21.1c15-0.7 24.6 7.7 29.5 11.5q3 2.2 8.9 8.4 8 0 17.9 3c3 0.9 5.9 2.3 8.5 3.9q0.9-1.5 1.9-3.2c-2.2-1.1-4.5-2-7-2.4-12.5-2.4-20.4-5.8-30.7-13.9q-10.3-8.1-26.2-10.5c12.1-1.9 25 1.9 34.4 9.3q9.5 7.4 21.3 7.7-6.6-11.4-14.7-16.5c11.8 3.6 20.7 12.3 26.7 20.6 6.1-8.3 15-17 26.8-20.6q-8.1 5.1-14.7 16.5 11.8-0.3 21.3-7.7c9.4-7.4 22.3-11.2 34.4-9.3q-15.9 2.4-26.2 10.5c-10.4 8.1-18.2 11.5-30.8 13.9-2.4 0.4-4.8 1.3-6.9 2.4q1 1.7 1.9 3.2c2.6-1.6 5.5-3 8.5-3.9q9.8-3 17.9-3 5.9-6.2 8.8-8.4c5-3.8 14.5-12.2 29.5-11.5q-19.2 3.8-28.5 21.1l2.5 0.6q12.1-13.4 27.1-18.5c14.9-5.2 19.5 5 37-11.9-15.3 28.3-30.9 3.2-55.3 32.2zm-56.4 5q1.6 1.1 3.1 2.3 1.6-1.2 3.2-2.3-1.5-1.3-3.2-2.5-1.7 1.2-3.1 2.5z"/>
		</g>
		<g id="&lt;Group&gt;">
			<path id="&lt;Path&gt;" class="s0" d="m137.8 33.3q-16.7 12.1-33.2 11.6-10.8-0.3-18.8-3-7.9 4.1-11.6 5.4c-6.1 2.1-18.5 7.2-33.1 1.4q20.3 2.7 35.4-11.3l-2.2-1.5q-16.6 9.3-33.2 9.3c-16.6 0.1-17.7-11.6-40.7-0.7 24.7-22.9 31.7 7.2 65.7-13.3q-13.1-5.7-22.5-1.5 14.4-11 33.8 0.6c19.4 11.6 39.3 14.6 60.4 3z"/>
			<path id="&lt;Path&gt;" class="s0" d="m248.9 30.3q19.4-11.6 33.8-0.6-9.4-4.2-22.6 1.5c34.1 20.5 41.1-9.6 65.8 13.3-23-10.9-24.1 0.8-40.7 0.7q-16.6 0-33.2-9.3l-2.2 1.5q15.1 14 35.4 11.3c-14.6 5.8-27 0.7-33.1-1.4q-3.7-1.3-11.6-5.4-8 2.7-18.8 3-16.5 0.5-33.2-11.6c21.1 11.6 41 8.6 60.4-3z"/>
		</g>
	</g>
</svg>