<svg version="1.2" xmlns="http://www.w3.org/2000/svg" viewBox="0 0 1200 1600" width="1200" height="1600">
	<title>crossed-swords-vector-ai</title>
	<style>
		.s0 { fill: #000000 } 
		.s1 { fill: #ffffff } 
	</style>
	<g id="Layer 1">
		<g id="&lt;Group&gt;">
			<path id="&lt;Compound Path&gt;" fill-rule="evenodd" class="s0" d="m197.2 287.9c4.9 5.6 4.4 14.1-1.2 19l-10.5 9.4c1.6 0.3 3.2 1.3 4.5 2.7 2.8 3.2 3 7.3 0.5 9.6l-47.2 41.8c-2.5 2.2-6.6 1.5-9.4-1.6-1.3-1.5-2-3.2-2.1-4.9l-10.6 9.4c-5.6 4.9-14.1 4.4-19.1-1.2-4.9-5.5-4.4-14.1 1.2-19l7.7-6.9c-4.1 0.3-8.3-1.3-11.3-4.7-5.1-5.7-4.6-14.6 1.2-19.7l3.5-3.1c-7.6-10.9-6-26.1 4.1-35.1 10.2-9 25.4-8.7 35.3 0.1l3.5-3.1c5.8-5.1 14.7-4.5 19.8 1.2 2.9 3.4 4 7.7 3.3 11.8l7.7-6.9c5.6-4.9 14.1-4.4 19.1 1.2zm-86.7 25.4l27.3-24.2c-6.9-5.6-17.1-5.6-24 0.5-6.8 6.1-8.1 16.2-3.3 23.7zm-4.8 22.9c2.2 2.5 6 2.7 8.5 0.5l46.4-41.1c2.5-2.2 2.7-6 0.5-8.5-2.2-2.4-6-2.7-8.5-0.5l-46.4 41.2c-2.4 2.2-2.7 6-0.5 8.4zm85.5-43c-2-2.3-5.5-2.5-7.8-0.5l-74.8 66.4c-2.3 2-2.5 5.5-0.5 7.7 2 2.3 5.5 2.5 7.8 0.5l74.8-66.3c2.3-2.1 2.5-5.5 0.5-7.8zm-4.1 28.5c-1.3-1.5-3.1-1.9-3.8-1.2l-47.1 41.8c-0.8 0.6-0.6 2.4 0.7 3.8 1.3 1.5 3.1 1.9 3.8 1.3l47.1-41.8c0.7-0.6 0.6-2.4-0.7-3.9z"/>
			<path id="&lt;Compound Path&gt;" fill-rule="evenodd" class="s0" d="m280.6 536c-7.1-2.1-15-12.7-15.1-18.6q89.3-11.8 93.2-12.3 10.1-0.5 18.7 19.5zm77.1-17.8l-6.9-7.8-67.4 9.3c-2.1 4 1.9 6.7 5.8 7z"/>
			<path id="&lt;Path&gt;" class="s0" d="m386.2 538.4q-3.4-3.4-6.8-7.1l-80.9 10.1c-0.5 2.7 3.6 7.9 7 8.3l88.5-9.7-33.9 12.4q-59.9 7.1-60.9 7.2c-4.2-2.1-15-12.1-16.2-20.6 1.4-0.3 91.7-11.7 97-12.4 4.5 1.1 7.9 4.7 9 9z"/>
			<path id="&lt;Compound Path&gt;" fill-rule="evenodd" class="s0" d="m264.1 515.5c-6-1.9-15.1-10.6-13.9-17.4l89.5-12.2c6.5 1.5 14.9 9.9 16.3 16.7zm9.9-9.2l66.1-9.3c-4.2-4.2-1.9-2.2-6-6.3l-66 8.9c-1.6 3.7 1.3 6.3 5.9 6.7z"/>
			<path id="&lt;Path&gt;" class="s0" d="m323 574.1l21.6-3-4.3 8.5q-21.3 3.2-22.6 3.5c-7.3-3.1-14.2-15.3-14.8-18.8q1-0.3 55.2-6.9l1 3.6-42.9 5.1q1.8 8 6.8 8z"/>
			<path id="&lt;Path&gt;" class="s0" d="m326 599c-3-4.1-5.1-8.4-5.4-10.3 0.3-0.1 6-0.8 13.5-1.7-1.8 3.6-5.5 9-8.1 12z"/>
			<path id="&lt;Compound Path&gt;" fill-rule="evenodd" class="s0" d="m248.3 496c-6.2-3-12.5-9.7-13.6-16.9q83.2-13.1 84.8-13.4c3.6 1.4 15 10.8 16.6 16.8q-1.5 0.4-87.8 13.5zm70.5-18.9c-2.5-2.6-5.2-6.1-7-7.9l-58.2 9c-3.1 3.7 1.2 8.1 5.1 9z"/>
			<path id="&lt;Compound Path&gt;" fill-rule="evenodd" class="s0" d="m232.4 476.4c-5.4-2.3-11.3-8.9-12.4-15.1q79.4-14.4 80.9-14.8c5.7 0.8 14.6 10.8 15.6 16.1-1.5 0.4-82.7 13.4-84.1 13.8zm64.9-17.6c0.3-2.8-1.7-5.2-5.6-6.6l-51.6 9c-2.9 3.4 0.4 6.7 5.1 6.4z"/>
			<path id="&lt;Compound Path&gt;" fill-rule="evenodd" class="s0" d="m217.2 458.2c-6-3-13.7-11.6-14.2-17.1q75.1-16.6 76.7-16.9c7.4 1.8 17.3 14.2 17.4 18.3q-1.4 0.5-79.9 15.7zm60.5-18.5c1.5-2.8-2.8-8-7-9.4l-46.5 10.3c-4.9 3.4-0.6 8.6 6 8.8z"/>
			<path id="&lt;Compound Path&gt;" fill-rule="evenodd" class="s0" d="m200.6 438.4c-6.6-3-12.3-10.3-13.1-15.7l75.2-17.6c5.2 2.7 13 10 13.9 15.9zm63.4-19.1c0.3-3.4-1.9-5.8-7.2-7.6l-48.4 10.9c-4 3.1 0.5 8.2 6.4 7.2z"/>
			<path id="&lt;Compound Path&gt;" fill-rule="evenodd" class="s0" d="m257.4 401.1q-71.8 17.7-73.3 18c-5.2-1.4-10.4-8.5-10.9-12.4l71.3-19.5c5.7 3 12.3 8.7 12.9 13.9zm-58.3 9.5l45.7-12.4c1.1-1.6-0.6-4.7-4.8-4.8l-44.7 11.6c-2.7 3.2 1 5.1 3.8 5.6z"/>
			<path id="&lt;Compound Path&gt;" fill-rule="evenodd" class="s0" d="m169.8 403c-5.5-2.2-10.7-8-11.9-13.6l71.4-19.3c4.8 2.4 9.9 7.4 11.7 12.5zm56.9-22.3c1.7-2.2 0.4-4.4-3.3-4.7l-44.9 12c-0.3 2.5 1.2 5.2 4 5.3z"/>
			<path id="&lt;Compound Path&gt;" fill-rule="evenodd" class="s0" d="m224.8 364.8l-69 22.2c-6.1-3.4-10.4-7.2-11.6-13.2l3.2-2.7 65-20.3c5.6 2.3 11 8.9 12.4 14zm-13.4-1.5c1.8-2.4-0.7-7.6-4.4-7.3l-45.1 15.3c0.6 3.5 1.7 5.1 5 5.7z"/>
			<path id="&lt;Compound Path&gt;" fill-rule="evenodd" class="s0" d="m151.3 366.2l41.7-37c5 1.8 11.2 6.4 14.5 16.3zm46.9-22.4c1-3.8-2.3-7.6-6.6-9.1l-28.3 24.6z"/>
			<path id="&lt;Compound Path&gt;" fill-rule="evenodd" class="s0" d="m359.8 566.8l2.3 2.6 13.7 15.3 0.1 0.2 3.6 4 3.8 4.7-169.6 137.1c5.7 1.2 10.2 6.5 11 7.2 5.6 5.2 9.8 10.6 15.3 10.2 2.5-0.2 5.4-1.3 7.8-4.3 3.8-4.7 4.4-8.6 4.1-14.3-0.4-7-1.3-16 5.9-26.2-11.2 9.5-5.5 31-14.2 40.3q-7.2 7.8-22-13.7c-2.7-2.4 32.3-28.1 37.6-28.4 1.6-2.1 3.6-4.3 6.1-6.5 6.4-5.6 12.7-7.9 16.7-6.5 4.9 1.7 5.7 8.6 6.6 13.2 1.3-2.5 2.6-5.4 4-8.5 4.8-10.5 9.4-26.5 20.4-37-0.1 0.1-0.2 0.2-0.3 0.3-18 14.9-21.1 34.5-23.6 34.9 0.1-7.9-11.8-5.7-12-8-0.3-2.3 37.6-29.5 37.1-28.3 7.8-7.2 18.3-11.1 34.7-9l8.8 10c-36.4-4.8-51.1 20.8-59.6 39.5-1.5 3.4-2.9 6.5-4.4 9.2-1.8 3.4-3.7 6.4-6.7 5.9-2.9-0.4-3.5-3.5-4.2-7.1-0.5-2.8-1.4-7.5-3.2-8.2-0.6-0.2-3.1-0.4-9.4 5.1-13.2 11.7-12.8 20.3-12.3 28.7 0.3 6.1 0.6 12.5-4.6 19q-1.4 1.7-2.9 3-4.1 3.7-8.8 4c-8 0.6-15.3-6.2-21.8-12.2q-1.5-1.4-2.9-2.7c-3.5-1.8-6.6-2.1-9.5-1.1-7.1 2.6-11.8 13.6-14.9 20.9-2.5 6-3.8 9-6.6 9.4-1.4 0.3-2.6-0.2-3.6-1.3-10.6-12 3.6-38 7-43.7-22.3-5-47.5-33.4-21.5-56.5 15.7-13.9 33.1-3.7 36.3 1.2 2.1 3.2 3 6.5 3 9.8 5.5-0.5 38.9-4.4 71.3-26.3q53.6-38.8 70.8-90.5zm-44.8 70.2q40-45.5 46.4-65c-0.6-2-1.6-3.4-2.2-4-3.4 6.9-21.4 41.4-59 74.8-22.7 20.1-60.6 38.1-99.3 48.8q-1.1 1.1-2.5 2.1c-4.1 3-8 3.5-11.3 2.7l1.8 4.3c1 0.7 25 13.4 65.5-18.3l14.6-4.6c-51.2 41.1-82 26.2-83.2 25.5l-0.6-7.5c-5.5-1.8-7.8-7.1-6.4-11.1 0.3-1.7 1.4-3.5 3.1-5.1 3-2.6 6.8-3.3 8.5-1.5 1.6 1.9 0.5 5.6-2.5 8.3-1.7 1.5-3.6 2.3-5.3 2.5 2.8 2.3 7.4 4.4 12.5 0.9 6.8-4.7 7.5-11.6 3.6-16.2-2.3-2.7-12.3-11.8-25.3 0.2-25.2 23.1 20.7 51 37.4 41.7l-5.2 8.8c-1.9 1.1-4.2 0.4-6.5 0.8-8.5 6.8-17.8 31.9-12.7 34 0.5-1.2 1-2.5 1.6-3.9 3.5-8.2 9.6-18.6 18.6-23.5 1-0.6 2.1-0.9 3-1.1l167.9-140c0-2.5-1.9-4.1-2.8-4.7zm-110.3 50.1c12.1-3.3 25.3-7.6 35.6-12.3-15.1 4.4-29 5.7-33.4 6-0.3 2.2-1.1 4.3-2.2 6.3zm39.4 31.4c-1.5-0.3-3.3 3.4-4 8-0.8 4.7-0.2 8.7 1.3 9 1.5 0.2 3.3-3.4 4.1-8.1 0.7-4.7 0.1-8.7-1.4-8.9z"/>
			<path id="&lt;Compound Path&gt;" fill-rule="evenodd" class="s0" d="m357.7 554.6q53.4-10.8 98.3-59.4c25.6-29.5 33.5-62.3 34.7-67.7-3.3-0.3-6.5-1.6-9.3-4.1-4.5-3.8-12.6-22.3 3.1-36.2 26-23 51.2 5.4 53.5 28.1 6.1-2.7 33.6-13.7 44.2-1.7 1 1.1 1.3 2.4 0.9 3.7-0.8 2.8-3.9 3.7-10.2 5.5-7.6 2.2-19.1 5.5-22.5 12.3-1.3 2.7-1.4 5.8 0 9.5q1.1 1.6 2.3 3.3c5.2 7.1 11.1 15.1 9.5 23.1q-0.9 4.6-5 8.2-1.4 1.3-3.3 2.5c-7.1 4.4-13.4 3.3-19.5 2.3-8.2-1.5-16.7-2.9-29.9 8.8-6.3 5.6-6.3 8.1-6.2 8.7 0.4 1.9 5 3.3 7.7 4.2 3.5 1.1 6.5 2 6.6 5 0.1 3-3.1 4.5-6.6 5.9-2.9 1.2-6.2 2.2-9.7 3.3-19.6 6.2-46.8 17.7-46.4 54.4l-8.8-9.9c-0.2-16.6 4.9-26.5 13-33.4-1.2 0.4 30.3-34 32.6-33.4 2.2 0.5-1.3 12 6.5 12.9-0.7 2.4-20.5 3.2-37.5 19.2-0.1 0.1-0.2 0.2-0.3 0.2 11.7-9.6 28.2-12.3 39.1-15.7 3.2-1.1 6.3-2 8.9-3-4.4-1.4-11.2-3.1-12.3-8.1-0.9-4.2 2.1-10.1 8.5-15.8 2.5-2.2 4.9-3.9 7.2-5.4 0.9-5.1 30.6-36.8 32.7-33.9q19.6 17.3 11 23.6c-10.4 7.5-31-0.7-41.8 9.2 11-6 19.8-3.9 26.7-2.8 5.7 1 9.6 0.9 14.8-2.3 3.2-2 4.6-4.7 5.1-7.3 1.1-5.3-3.8-10.2-8.2-16.3-0.7-0.9-5.4-6-5.9-11.8l-156.4 151.9-4.2-4.3-3.5-4-0.2-0.2-13.6-15.4-2.3-2.6zm20.5 28.3c0.5 1 1.8 3.1 4.3 3.3l159.1-149.8c0.3-1 0.7-1.9 1.4-2.9 6-8.3 17-13.2 25.7-15.7 1.3-0.4 2.7-0.7 3.9-1.1-1.4-5.3-27.5 1-35.3 8.6-0.5 2.2-0.2 4.5-1.4 6.3l-9.4 4.1c11.2-15.5-11-64.3-37-42.1-13.5 11.5-5.6 22.5-3.2 25.1 4.2 4.4 11 4.6 16.5-1.7 4.2-4.6 2.6-9.4 0.6-12.4-0.4 1.6-1.4 3.4-3.1 4.9-3 2.6-6.8 3.3-8.5 1.5-1.6-1.9-0.5-5.6 2.5-8.3 1.8-1.5 3.7-2.4 5.4-2.5 4.1-0.9 9.1 2.1 10.3 7.8l7.3 1.5c0.6 1.2 11.7 33.6-35.2 79.4l6.3-13.9c36.3-36.4 26.5-61.7 26-62.8l-4-2.3c0.4 3.3-0.6 7.2-4.1 10.9q-1.1 1.2-2.4 2.3c-15.2 37.1-37.7 72.6-60.3 92.6-37.7 33.4-74.1 47.2-81.3 49.7 0.5 0.6 1.7 1.8 3.6 2.6q20.2-3.9 70.2-38.3zm114.3-155.3c-0.8 4.4-3.8 18-10 32.5 5.9-9.6 11.7-22.3 16.5-33.9-2.1 0.9-4.3 1.4-6.5 1.4zm41.6 43.9c4.8-0.1 8.6-1.5 8.5-3 0-1.5-3.9-2.6-8.7-2.4-4.7 0.1-8.5 1.5-8.5 3 0.1 1.6 4 2.6 8.7 2.4z"/>
			<path id="&lt;Path&gt;" class="s0" d="m440.6 544c2.7 5.3-29.3 33.3-31.3 60.2 24.2 27.7 137.7 158.1 253.2 289.7 76.1 86.7 137.5 157.4 182.7 210.2 57.9 67.6 93 110.3 98 120l1 1.9-1.8-1.2c-9-6.1-47.2-46.1-107.4-111.6-47-51.2-109.9-120.7-186.8-206.6-117.2-130.7-233.9-259.7-258.2-286.6-26.5-0.2-57.2 27.1-62 23.9l57.7-44.5q32.6 30.5 26.5 30c-4.9-5.1-10.5-7.8-16.4-8.8 28.1 31.8 139.7 157.8 253.5 284.8 213.6 238.5 277.4 304.6 290.8 316-9.7-14.7-67.7-85.9-278.9-326.6-111.6-127.1-222.5-252-251.8-285 0.5 5.6 2.6 11 6.7 16.1q-0.2 6.2-26.5-29.9z"/>
			<path id="&lt;Path&gt;" class="s0" d="m437.7 577.4c6.2 7 151.7 168.7 294.4 337 85.3 100.6 152.9 183.8 201 247.4 61.5 81.3 98.7 138.9 96.7 156.8l-0.4 3.6-3.6-0.1c-18-0.1-70.7-43.9-144.1-114.8-57.3-55.3-131.8-132.4-221.5-229.1-149.5-161.2-292.1-324.4-299.3-332.6 0 0-10.4-8.7-19-6.2l5.1-2.5q13.3-3.6 19.6 3.1h0.1q0 0 0.2 0.3c6.7 7.7 149.5 171.1 299.2 332.5 248.9 268.5 333 334.1 355.6 340.7-3.8-23.2-58.9-114.6-295.7-393.9-142.3-167.9-287.4-329.2-294.2-336.8h-0.1q0-0.1-0.1-0.2c0 0-0.1-0.1-0.1-0.1q-5.9-7.1-0.7-19.8l3.1-4.9c-3.4 7.9 3 18.4 3.8 19.6z"/>
			<path id="&lt;Path&gt;" class="s1" d="m261.4 1221.4c9.7-14.7 67.7-85.9 278.9-326.6 111.6-127.1 222.5-252 251.8-285-0.5 5.6-2.6 11-6.7 16.1 0 1.8 2.4 0 5.6-3.5l1.8 0.2c-3.5 4.1-5.4 6.9-3.5 6.8 4.9-5.1 10.5-7.8 16.4-8.8-28.1 31.8-139.7 157.8-253.5 284.8-213.6 238.5-277.4 304.6-290.8 316z"/>
			<path id="&lt;Path&gt;" class="s1" d="m811.5 620c17.2-0.1 36.2 11.3 48.7 18.5l-0.6 0.9-5.1-2.5q-13.3-3.6-19.6 3.1h-0.1c0 0-0.1 0.1-0.2 0.3-6.7 7.7-149.5 171.1-299.2 332.5-248.9 268.5-333 334.1-355.6 340.7 3.8-23.2 58.9-114.6 295.7-393.9 142.3-167.9 287.4-329.2 294.2-336.8h0.1q0-0.1 0.1-0.2c0 0 0.1-0.1 0.1-0.1q5.9-7.1 0.7-19.8l-3.1-4.9 0.7-0.5c8.9 11.9 22.6 29.6 23.9 46.9-24.2 27.7-137.7 158.1-253.2 289.7-76.1 86.7-137.5 157.4-182.7 210.2-57.9 67.6-93 110.3-98 120l-1 1.9 1.8-1.2c9-6.1 47.2-46.1 107.4-111.6 47-51.2 109.9-120.7 186.8-206.6 117.2-130.7 233.9-259.7 258.2-286.6z"/>
			<path id="&lt;Compound Path&gt;" fill-rule="evenodd" class="s0" d="m1008.2 329c-2.5-2.2-2.3-6.4 0.4-9.5 1.4-1.5 3-2.5 4.6-2.8l-10.5-9.3c-5.6-5-6.1-13.5-1.2-19.1 5-5.6 13.5-6.1 19.1-1.1l7.7 6.8c-0.7-4 0.4-8.4 3.3-11.8 5.1-5.7 14-6.3 19.8-1.1l3.5 3.1c9.9-8.9 25.1-9.2 35.3-0.2 10.1 9.1 11.7 24.2 4.1 35.1l3.5 3.1c5.7 5.1 6.3 14 1.2 19.8-3 3.3-7.2 4.9-11.4 4.6l7.8 6.9c5.6 4.9 6.1 13.5 1.1 19.1-4.9 5.5-13.4 6-19 1.1l-10.6-9.4c-0.1 1.7-0.8 3.4-2.1 4.9-2.8 3.1-6.9 3.8-9.4 1.6zm82.3 38.2c2-2.2 1.8-5.7-0.5-7.7l-74.8-66.4c-2.3-2-5.7-1.8-7.8 0.5-2 2.3-1.8 5.8 0.5 7.8l74.8 66.3c2.3 2 5.8 1.8 7.8-0.5zm2.4-30.6c2.2-2.4 2-6.2-0.5-8.4l-46.4-41.2c-2.5-2.2-6.3-1.9-8.5 0.6-2.2 2.4-1.9 6.2 0.5 8.4l46.4 41.2c2.5 2.1 6.3 1.9 8.5-0.6zm-81.3-14.5c-1.3 1.5-1.5 3.3-0.8 3.9l47.1 41.8c0.8 0.6 2.5 0.2 3.8-1.2 1.3-1.5 1.5-3.3 0.8-3.9l-47.2-41.8c-0.7-0.6-2.4-0.3-3.7 1.2zm76.6-8.4c4.7-7.5 3.5-17.6-3.4-23.7-6.9-6.1-17-6.1-23.9-0.5z"/>
			<path id="&lt;Compound Path&gt;" fill-rule="evenodd" class="s0" d="m1005.7 329.6l41.7 37-56.2-20.7c3.3-9.9 9.5-14.5 14.5-16.3zm29.7 30.1l-28.3-24.5c-4.3 1.4-7.6 5.3-6.6 9z"/>
			<path id="&lt;Compound Path&gt;" fill-rule="evenodd" class="s0" d="m1042.9 387.4l-69-22.2c1.4-5 6.8-11.7 12.4-14l65 20.3 3.2 2.8c-1.2 5.9-5.6 9.7-11.6 13.1zm-51.2-31c-3.7-0.2-6.2 4.9-4.4 7.3l44.5 13.7c3.3-0.6 4.4-2.2 5-5.7z"/>
			<path id="&lt;Path&gt;" class="s0" d="m1015.6 703.3c-1.2 0.7-32 15.6-83.1-25.5l14.6 4.6c40.5 31.7 64.4 19 65.5 18.3l1.7-4.3c-3.2 0.8-7.1 0.3-11.3-2.7-0.9-0.6-1.7-1.3-2.5-2.1-10.1-2.8-20.2-6.1-30-9.8l1.1-2.7c8 3 16.9 5.7 25.2 8-1.2-2-1.9-4.1-2.2-6.3-0.2 0-0.4 0-0.6 0l0.1-1.9q0.2 0 0.3 0.1c0-3.3 0.9-6.6 3-9.8 3.2-4.9 20.6-15.1 36.3-1.2 26 23.1 0.8 51.5-21.5 56.5 3.4 5.7 17.6 31.7 7 43.7-1 1.1-2.3 1.6-3.6 1.3-2.8-0.4-4.1-3.4-6.6-9.4-3.1-7.3-7.8-18.3-14.9-20.9-2.9-1-6-0.7-9.5 1.1q-1.4 1.3-2.9 2.7c-6.5 6-13.8 12.8-21.8 12.2q-4.7-0.3-8.8-4-1.5-1.3-2.9-3c-5.2-6.5-4.9-12.9-4.6-19 0.5-8.4 0.9-17-12.3-28.7-6.3-5.5-8.8-5.3-9.4-5.1-1.8 0.7-2.7 5.4-3.2 8.2-0.7 3.6-1.3 6.7-4.2 7.1-3 0.5-4.9-2.5-6.7-5.9-1.5-2.7-2.9-5.8-4.4-9.2l5.5-2.4c1.4 3 2.7 6 4 8.5 0.9-4.6 1.7-11.5 6.6-13.2 4-1.4 10.3 0.9 16.7 6.5 2.5 2.2 4.5 4.4 6.1 6.5q0.8 0.1 2.1 0.7l-0.7 1.1c7.2 10.2 6.3 19.2 5.9 26.2-0.3 5.7 0.3 9.6 4.1 14.3 2.4 3 5.3 4.1 7.8 4.3 5.5 0.4 9.7-5 15.3-10.2 0.8-0.7 5.3-6 11-7.2l1.7-2 2.3 1.9c1 0.2 2 0.5 3 1.1 9 4.9 15.2 15.3 18.7 23.5 0.5 1.3 1 2.7 1.6 3.9 5.1-2.1-4.3-27.2-12.8-34-2.3-0.4-4.6 0.3-6.5-0.8l-5.1-8.8c16.6 9.3 62.5-18.6 37.4-41.7-13.1-12-23.1-2.9-25.4-0.2-3.9 4.6-3.2 11.5 3.7 16.2 5.1 3.5 9.6 1.4 12.4-0.9-1.6-0.2-3.6-1-5.2-2.5-3.1-2.7-4.2-6.4-2.5-8.3 1.6-1.8 5.4-1.1 8.4 1.5 1.8 1.6 2.8 3.4 3.2 5.1 1.3 4-1 9.3-6.5 11.1z"/>
			<path id="&lt;Compound Path&gt;" fill-rule="evenodd" class="s0" d="m954.2 387.6l71.3 19.5c-0.5 3.9-5.7 11-10.9 12.4q-1.5-0.2-73.3-18c0.6-5.2 7.2-10.9 12.9-13.9zm49.2 17.8l-44.7-11.5c-4.2 0-5.9 3.1-4.8 4.8l45.7 12.3c2.8-0.5 6.5-2.4 3.8-5.6z"/>
			<path id="&lt;Compound Path&gt;" fill-rule="evenodd" class="s0" d="m1028.9 403.4l-71.2-20.3c1.8-5.2 6.9-10.2 11.7-12.6l71.4 19.3c-1.2 5.6-6.4 11.4-11.9 13.6zm-8.7-15l-44.9-12c-3.7 0.3-5 2.5-3.3 4.7l44.2 12.6c2.9-0.1 4.3-2.8 4-5.3z"/>
			<path id="&lt;Compound Path&gt;" fill-rule="evenodd" class="s0" d="m919 424.6q1.6 0.3 76.7 16.9c-0.6 5.5-8.2 14.1-14.2 17.1q-78.5-15.2-79.9-15.6c0.1-4.2 10-16.6 17.4-18.4zm9 6.1c-4.2 1.4-8.6 6.6-7 9.4l47.5 9.7c6.6-0.2 10.9-5.4 6-8.8z"/>
			<path id="&lt;Compound Path&gt;" fill-rule="evenodd" class="s0" d="m897.8 446.9q1.5 0.4 80.9 14.9c-1.1 6.1-7 12.7-12.4 15-1.4-0.4-82.7-13.4-84.1-13.8 1-5.3 9.9-15.3 15.6-16.1zm60.8 14.7l-51.6-8.9c-3.9 1.3-6 3.7-5.6 6.5l52.1 8.8c4.6 0.4 8-3 5.1-6.4z"/>
			<path id="&lt;Compound Path&gt;" fill-rule="evenodd" class="s0" d="m957.9 743.6c-8.7-9.3-3-30.8-14.2-40.3l0.7-1.1c9.2 4 38 25.5 35.5 27.7q-14.8 21.5-22 13.7zm-0.6-25.1c-1.5 0.2-2.1 4.2-1.3 8.9 0.7 4.7 2.6 8.3 4.1 8.1 1.5-0.3 2.1-4.3 1.3-8.9-0.7-4.7-2.6-8.3-4.1-8.1z"/>
			<path id="&lt;Compound Path&gt;" fill-rule="evenodd" class="s0" d="m879.2 466.1q1.6 0.3 84.8 13.4c-1.2 7.2-7.4 13.9-13.6 16.9q-86.4-13.1-87.8-13.5c1.5-6 13-15.4 16.6-16.8zm65.9 12.6l-58.2-9.1c-1.8 1.8-4.5 5.3-7.1 7.9l60.2 10.1c3.9-0.9 8.2-5.3 5.1-8.9z"/>
			<path id="&lt;Compound Path&gt;" fill-rule="evenodd" class="s0" d="m998.1 438.8l-76-17.4c0.9-5.9 8.7-13.2 13.9-15.9l75.2 17.6c-0.8 5.5-6.5 12.7-13.1 15.7zm-63.4-19.1l49.2 10.6c5.8 0.9 10.3-4.1 6.4-7.3l-48.4-10.9c-5.3 1.8-7.5 4.2-7.2 7.6z"/>
			<path id="&lt;Compound Path&gt;" fill-rule="evenodd" class="s0" d="m859 486.4l89.5 12.1c1.2 6.8-7.9 15.5-13.9 17.4l-91.9-12.9c1.4-6.8 9.8-15.2 16.3-16.6zm71.6 13.5l-66-8.9c-4.1 4.2-1.8 2.2-5.9 6.3l66 9.3c4.6-0.3 7.5-2.9 5.9-6.7z"/>
			<path id="&lt;Compound Path&gt;" fill-rule="evenodd" class="s0" d="m840 505.5q3.9 0.5 93.2 12.3c-0.1 6-8 16.5-15.1 18.7l-96.8-11.5q8.6-20 18.7-19.5zm75.3 14.7l-67.5-9.3-6.8 7.7 68.5 8.6c3.9-0.3 7.8-3 5.8-7z"/>
			<path id="&lt;Path&gt;" class="s0" d="m882.5 566.5l-34-4c-0.6-1.5-1.2-2.8-1.6-3.9 11.2 1.4 48.1 5.9 48.9 6.1-0.6 3.5-7.6 15.7-14.8 18.8-1-0.2-15.6-2.5-23.5-3.7-1.8-3.1-3.4-6.1-4.8-8.8l23 3.5q5 0 6.8-8z"/>
			<path id="&lt;Path&gt;" class="s0" d="m888.8 655.8c6.8 4.5 35.9 25.6 35.6 27.6-0.2 2.3-12.1 0.1-12 8-2.5-0.4-5.6-20-23.6-34.9-0.1-0.1-0.2-0.2-0.3-0.3z"/>
			<path id="&lt;Path&gt;" class="s0" d="m887.3 655.1c0-0.2 0.5 0.1 1.5 0.7l-0.3 0.4c11 10.5 15.6 26.5 20.4 37l-5.5 2.4c-8.5-18.7-23.2-44.3-59.6-39.5l8.8-10c16.4-2.1 26.9 1.8 34.7 9z"/>
			<path id="&lt;Path&gt;" class="s0" d="m878.1 589.1c-0.3 1.9-2.4 6.2-5.4 10.3-2.6-3-6.3-8.4-8.2-12 7.6 0.9 13.3 1.6 13.6 1.7z"/>
			<path id="&lt;Path&gt;" class="s0" d="m860.1 579.6c1.4 2.7 3 5.7 4.8 8.9q-2.8-0.5-4.8-0.8l-6.8-9.1z"/>
			<path id="&lt;Path&gt;" class="s0" d="m856 571.1l-6.6-0.8 1.7-3.5q1.2 0.2 3.2 0.4c0.5 1.1 1 2.4 1.7 3.9z"/>
			<path id="&lt;Path&gt;" class="s0" d="m843.8 554.6l-1 3.5-5.1-5.1q3.9 1.2 6.1 1.6z"/>
			<path id="&lt;Path&gt;" class="s0" d="m853.3 578.6l6.8 9.1q2 0.3 4.8 0.8c10.7 18.3 29.1 43.1 58.2 64.2 31.9 21.5 64.8 25.7 71 26.2l-0.1 1.9c-5-0.4-18.3-1.8-32.8-6 3.2 1.5 6.7 2.9 10.4 4.3l-1.1 2.7c-27.5-10.5-52.5-24.2-69.2-39-37.7-33.4-55.7-67.9-59-74.8q-0.2 0.1-0.3 0.3l-0.9-0.9 0.6-0.6 10.6-4.6q0.6 1.8 2 5-2-0.2-3.2-0.4l-1.7 3.5 6.6 0.8c1 2.4 2.4 5.3 4.1 8.5z"/>
			<path id="&lt;Path&gt;" class="s0" d="m900.2 541.8l-80.6-10.1q0.8-0.7 0 0c-2.1 2.2-4.3 4.3-6.6 6.7q-0.8-0.4-1.7-0.7l-1.6-1.7c1.1-4.2 4.5-7.9 8.9-9 5.4 0.7 95.7 12.1 97.1 12.4-1.2 8.5-12 18.5-16.2 20.6-0.8-0.1-39.2-4.6-54.6-6.5q-3.9-0.4-6.3-0.7l-28.9-12 83.5 9.3c3.3-0.3 7.5-5.6 7-8.3z"/>
			<path id="&lt;Path&gt;" class="s0" d="m842 568.3c-0.6 0.7-1.5 1.9-1.9 3.7q6.3 19.5 46.4 65l-59.8-51.1c-0.4 0.3-0.9 0.7-1.5 1.3l-0.9-0.8 1.3-1.5 0.1-0.2 13.7-15.3 1.7-2z"/>
			<path id="&lt;Path&gt;" class="s0" d="m824.3 586.4l0.9 0.8c-0.7 0.8-1.3 1.9-1.2 3.4l106.9 89.2 58.6 48.9-1.7 2-169.6-137.1 3.8-4.7z"/>
			<path id="&lt;Path&gt;" class="s0" d="m840.2 566.1l-2 2.2-13.6 15.4-0.2 0.2-1.1 1.2-0.9-0.8c0.4-0.5 0.7-1.1 0.9-1.4l-57.9-53.2c1.6 1.1 50.3 34.4 70.2 38.3 1.9-0.8 3.1-2 3.6-2.7z"/>
			<path id="&lt;Path&gt;" class="s0" d="m823.3 585.1l-2.4 2.8-4.2 4.3-156.4-151.9 1.8-1.9 55.6 52.3 101.3 95.5c1.6-0.2 2.7-1 3.4-1.9z"/>
			<path id="&lt;Path&gt;" class="s0" d="m820.4 547c-0.1 0.1-0.3 0.3-0.5 0.5l-1.2-1.2q0.9 0.4 1.7 0.7z"/>
			<path id="&lt;Path&gt;" class="s0" d="m770.7 562.7q5.2 12.7-0.7 19.8c0 0-0.1 0.1-0.1 0.1q-0.1 0.1-0.1 0.2h-0.1c-6.8 7.6-151.9 168.9-294.2 336.8-236.8 279.3-291.9 370.7-295.7 393.9 22.6-6.6 106.7-72.2 355.6-340.7 149.7-161.4 292.5-324.8 299.2-332.5 0.1-0.2 0.2-0.3 0.2-0.3h0.1q6.3-6.7 19.6-3.1l5.1 2.5c-8.6-2.5-19 6.2-19 6.2-7.2 8.2-149.8 171.4-299.3 332.6-89.7 96.7-164.2 173.8-221.5 229.1-73.4 70.9-126.1 114.7-144.1 114.8l-3.6 0.1-0.4-3.6c-2-17.9 35.2-75.5 96.7-156.8 48.1-63.6 115.7-146.8 201-247.4 142.7-168.3 288.1-330 294.4-337 0.8-1.2 7.2-11.7 3.8-19.6z"/>
			<path id="&lt;Path&gt;" class="s0" d="m747.4 531c8.1 6.9 13.2 16.9 13 33.4l-8.8 9.9c0.4-36.7-26.8-48.2-46.4-54.4-2.5-0.8-4.8-1.5-7-2.3l1.9-5.7c2.1 0.8 4.5 1.5 6.9 2.3 10.9 3.4 27.2 6.1 39 15.6q0 0 0 0 0.1 0.1 0.1 0.1l0.4-0.2c0.6 0.8 1 1.3 0.9 1.3z"/>
			<path id="&lt;Path&gt;" class="s0" d="m714.8 497.6c2-0.5 26.4 25.8 31.7 32.1l-0.4 0.2q0 0-0.1-0.1 0 0 0 0-0.1-0.1-0.2-0.1c-17-16-36.8-16.8-37.5-19.2 7.8-0.9 4.3-12.4 6.5-12.9z"/>
			<path id="&lt;Path&gt;" class="s0" d="m757.9 515.7c-15.8-14-31.5-35.6-44.8-60l2.5-1.4q1.7 3 3.3 5.8c-5.9-14.1-8.9-27.3-9.9-32.1l1.9-0.3c1.2 5.8 9.2 38.2 34.6 67.5 25.4 27.5 53.6 42.9 73.2 51.1l1.2 1.2c0.2-0.2 0.4-0.4 0.5-0.5 7.2 2.9 13.2 4.8 17.3 6l5.1 5.1-2.3 7.6-0.3 0.4-1-0.8c-7.2-2.5-43.6-16.2-81.3-49.6z"/>
			<path id="&lt;Path&gt;" class="s0" d="m713.1 455.7c-5.7-10.5-11-21.5-15.6-32.7q-1.2-1-2.3-2.2c-3.5-3.8-4.5-7.6-4.1-10.9l-4.1 2.2c-0.4 1.1-10.2 26.5 26.1 62.9l6.3 13.9c-46.9-45.9-35.8-78.2-35.2-79.5l7.3-1.5c1.2-5.7 6.1-8.6 10.3-7.7 1.7 0.1 3.6 0.9 5.4 2.5 3 2.7 4.1 6.4 2.5 8.2-1.7 1.9-5.5 1.2-8.5-1.5-1.7-1.5-2.7-3.3-3.1-4.9-2 3.1-3.6 7.8 0.5 12.5 5.5 6.2 12.4 6.1 16.6 1.7 2.4-2.7 10.3-13.6-3.2-25.2-26-22.2-48.2 26.7-37 42.1l-9.4-4c-1.2-1.8-0.9-4.2-1.5-6.4-7.7-7.6-33.8-13.9-35.2-8.6 1.2 0.4 2.6 0.8 3.9 1.2 8.7 2.5 19.7 7.3 25.7 15.7q1 1.4 1.4 2.8l2.2 2.1-1.8 1.9c-0.5 5.8-5.2 10.9-5.9 11.8-4.4 6.1-9.3 11-8.2 16.3 0.5 2.6 1.9 5.3 5.1 7.3 5.2 3.2 9.1 3.3 14.8 2.3 6.9-1.1 15.7-3.2 26.7 2.8l1.2-0.4q0.6 1 0.7 1.5c2.3 1.5 4.7 3.2 7.2 5.4 6.4 5.7 9.4 11.6 8.5 15.8-1.1 5-7.9 6.7-12.3 8.1q0.9 0.3 2 0.7l-1.9 5.7q-1.4-0.5-2.7-1c-3.5-1.4-6.7-2.9-6.6-5.9 0.1-3 3.1-3.9 6.6-5 2.7-0.9 7.3-2.3 7.7-4.2 0.1-0.6 0.1-3.1-6.2-8.7-13.2-11.7-21.7-10.3-29.9-8.8-6.1 1-12.4 2.1-19.5-2.3q-1.9-1.2-3.3-2.5c-2.7-2.4-4.4-5.2-5-8.2-1.6-8 4.3-16 9.5-23.1q1.2-1.7 2.3-3.3c1.4-3.7 1.3-6.8 0-9.5-3.4-6.8-14.9-10.1-22.5-12.3-6.3-1.8-9.4-2.7-10.2-5.5-0.4-1.3-0.1-2.6 0.9-3.7 10.6-12 38.1-1 44.2 1.7 2.3-22.7 27.5-51.1 53.5-28.1 15.7 13.9 7.6 32.4 3.2 36.2-2.9 2.5-6.1 3.8-9.4 4.1q0 0.1 0.1 0.2l-1.9 0.3q0-0.2 0-0.4c-2.2 0-4.4-0.5-6.5-1.5 3.9 9.5 8.4 19.6 13.1 28.2z"/>
			<path id="&lt;Compound Path&gt;" fill-rule="evenodd" class="s0" d="m692.8 480.8c-10.8-9.9-31.4-1.7-41.8-9.2q-8.6-6.3 11-23.6c1.9-2.7 27.5 24.2 32 32.4zm-25.4-9.3c4.7 0.1 8.6-0.9 8.7-2.5 0.1-1.5-3.7-2.9-8.5-3-4.7-0.2-8.6 0.9-8.7 2.4-0.1 1.5 3.7 2.9 8.5 3.1z"/>
			<path id="&lt;Path&gt;" class="s0" d="m539 893.9c115.5-131.6 229-262 253.2-289.7-1.3-17.3-15-35-23.9-46.9-4.9-6.6-8.4-11.4-7.4-13.3l51 52q-13.1 17.9-20.9 26.4c-3.2 3.5-5.6 5.3-5.6 3.5 4.1-5.1 6.2-10.5 6.7-16.1-29.3 33-140.2 157.9-251.8 285-211.2 240.7-269.2 311.9-278.9 326.6 13.4-11.4 77.2-77.5 290.8-316 113.8-127 225.4-253 253.5-284.8-5.9 1-11.5 3.7-16.4 8.8-1.9 0.1 0-2.7 3.5-6.8q7.7-8.8 23-23.2l57.7 44.5c-1.7 1.1-6.6-1.5-13.3-5.4-12.5-7.2-31.5-18.6-48.7-18.5-24.3 26.9-141 155.9-258.2 286.6-76.9 85.9-139.8 155.4-186.8 206.6-60.2 65.5-98.4 105.5-107.4 111.6l-1.8 1.2 1-1.9c5-9.7 40.1-52.4 98-120 45.2-52.8 106.6-123.5 182.7-210.2z"/>
		</g>
	</g>
</svg>